<?xml version="1.0" encoding="UTF-8"?><svg xmlns="http://www.w3.org/2000/svg" viewBox="0 0 49 52.48" fill="#f5b826"><g><path class="cls-1" d="M11.33,4.01c.53,2.06,1.1,4.12,1.72,6.16,.62,2.04,1.28,4.07,2.02,6.06,.37,1,.77,1.98,1.2,2.95,.43,.97,.91,1.92,1.46,2.82,.27,.45,.58,.88,.92,1.28,.36,.39,.7,.79,1.08,1.17,.74,.77,1.5,1.51,2.26,2.25,1.54,1.47,3.1,2.92,4.67,4.36,1.57,1.44,3.15,2.87,4.73,4.3,1.58,1.42,3.17,2.84,4.77,4.26l4.78,4.24h0l2.02,2.15,2.01,2.15,4.02,4.31-4.11-4.22-2.05-2.12-2.05-2.12h0c-1.62-1.38-3.23-2.78-4.83-4.18-1.6-1.41-3.2-2.82-4.79-4.24-1.59-1.42-3.18-2.85-4.75-4.28-1.57-1.44-3.13-2.9-4.66-4.38-.76-.75-1.53-1.49-2.26-2.27-.38-.38-.72-.79-1.09-1.19-.35-.41-.67-.86-.94-1.32-.56-.92-1.02-1.89-1.45-2.87-.42-.98-.81-1.98-1.17-2.98-.72-2.01-1.36-4.05-1.94-6.1-.58-2.05-1.12-4.12-1.58-6.2Z"/><g><path class="cls-1" d="M4.28,17.27c.49,.43,1,.85,1.53,1.23,.52,.39,1.06,.77,1.61,1.13,1.1,.71,2.23,1.37,3.42,1.91,1.18,.56,2.41,1.02,3.67,1.36,.31,.09,.63,.16,.95,.24,.32,.06,.64,.14,.96,.18,.64,.12,1.3,.17,1.95,.23-.33,0-.66,0-.99-.02l-.49-.03-.49-.05c-.16-.02-.33-.04-.49-.07l-.49-.08c-.32-.07-.65-.12-.97-.21-.64-.14-1.27-.35-1.9-.57-.62-.22-1.23-.47-1.83-.75-.6-.28-1.18-.59-1.75-.92-.57-.33-1.13-.68-1.67-1.06-1.08-.76-2.11-1.58-3.03-2.52Z"/><g><path class="cls-1" d="M6.5,21.85c.28,.18,.56,.35,.86,.49,.29,.15,.59,.28,.9,.39,.61,.23,1.25,.4,1.89,.47,.65,.08,1.3,.07,1.95-.03,.32-.05,.64-.12,.95-.22,.32-.09,.62-.22,.92-.35-.57,.33-1.2,.58-1.85,.71-.33,.07-.66,.1-.99,.12-.33,0-.67,0-1-.05-.66-.08-1.31-.26-1.92-.53-.61-.26-1.19-.59-1.7-1.02Z"/><path class="cls-1" d="M7.32,21.25c.53,.29,.79,.84,.58,1.22-.21,.39-.81,.47-1.34,.18s-.79-.84-.58-1.22c.21-.39,.81-.47,1.34-.18Z"/><path class="cls-1" d="M4.92,22.46c.28,.18,.56,.35,.86,.49,.29,.15,.59,.28,.9,.39,.61,.23,1.25,.4,1.89,.47,.65,.08,1.3,.07,1.95-.03,.32-.05,.64-.12,.95-.22,.32-.09,.62-.22,.92-.35-.57,.33-1.2,.58-1.85,.71-.33,.07-.66,.1-.99,.12-.33,0-.67,0-1-.05-.66-.08-1.31-.26-1.92-.53-.61-.26-1.19-.59-1.7-1.02Z"/><path class="cls-1" d="M5.3,21.76c.53,.29,.79,.84,.58,1.22-.21,.39-.81,.47-1.34,.18-.53-.29-.79-.84-.58-1.22,.21-.39,.81-.47,1.34-.18Z"/></g><path class="cls-1" d="M14.21,20.72c.05-.02,.1,.02,.14,.06,.04,.04,.07,.08,.1,.12,.06,.08,.12,.16,.18,.24,.12,.16,.25,.3,.39,.44,.28,.27,.58,.51,.91,.72,.65,.43,1.37,.76,2.09,1.11-.39-.07-.78-.19-1.15-.34-.37-.15-.74-.33-1.08-.55-.34-.22-.65-.49-.91-.81-.13-.16-.24-.33-.34-.5-.05-.09-.09-.18-.13-.27-.02-.05-.04-.09-.07-.13-.02-.04-.05-.08-.11-.08Z"/><path class="cls-1" d="M14.89,20.31c.31,.52,.26,1.12-.12,1.35-.38,.23-.94-.01-1.25-.53-.31-.52-.26-1.12,.12-1.35s.94,.01,1.25,.53Z"/><path class="cls-1" d="M10.79,18.65c.07,.27,.16,.53,.27,.79,.1,.26,.22,.51,.34,.75,.26,.49,.56,.95,.93,1.35,.17,.21,.38,.4,.58,.58,.11,.09,.22,.17,.32,.25,.11,.09,.22,.16,.34,.23,.45,.31,.97,.51,1.49,.7-.13-.03-.27-.07-.4-.11-.13-.04-.27-.07-.4-.13l-.39-.16c-.13-.06-.25-.13-.37-.2l-.18-.1c-.06-.04-.11-.08-.17-.12-.11-.08-.23-.17-.34-.25-.21-.19-.42-.37-.6-.59-.36-.43-.68-.9-.92-1.4-.23-.51-.42-1.04-.5-1.59Z"/><g><path class="cls-1" d="M12.24,16.35c-.05,0,.06,0,0,0,.7-1.42-4.11-1.4-3.42,0-1.72-.64-1.84,3.31-.02,2.64-.46,1.1,3.79,1.21,3.26,.02,1.55,.66,1.87-3.02,.18-2.64Z"/><path class="cls-1" d="M11.01,17.58c0,.26-.26,.48-.59,.47-.32,0-.58-.22-.58-.48,0-.26,.26-.48,.59-.47,.32,0,.58,.22,.58,.48Z"/></g><g><path class="cls-1" d="M2.44,14.36s.02-.05,0,0c-1.43-1.56-3.66,2.7-1.62,3.01-1.6,1.09,3.22,3.82,3.25,1.77,1.15,1.14,3.27-2.54,1.56-2.87,1.54-.93-2.85-3.66-3.18-1.91Z"/><path class="cls-1" d="M3.37,16.26c.32,.18,.46,.55,.31,.83-.15,.28-.54,.37-.87,.19-.32-.18-.46-.55-.31-.83,.15-.28,.54-.37,.87-.19Z"/></g></g><path class="cls-1" d="M23.44,13.97c.56,1.19,.97,2.45,1.3,3.72,.17,.64,.29,1.29,.4,1.94,.11,.65,.19,1.3,.25,1.96,.05,.66,.07,1.32,.06,1.98-.01,.66-.04,1.32-.14,1.97-.04,.33-.1,.65-.15,.98l-.1,.48c-.03,.16-.07,.32-.11,.48l-.12,.48-.15,.47c-.09,.32-.22,.62-.33,.93,.18-.63,.36-1.26,.47-1.91,.07-.32,.11-.64,.17-.97,.04-.32,.09-.65,.11-.97,.12-1.3,.13-2.61,.02-3.91-.09-1.3-.3-2.59-.58-3.87-.14-.64-.3-1.27-.49-1.9-.18-.63-.38-1.25-.62-1.87Z"/><g><path class="cls-1" d="M26.94,17.67c.22,.63,.32,1.29,.35,1.95,.03,.66-.03,1.34-.18,1.99-.08,.32-.18,.64-.31,.95-.13,.31-.28,.61-.46,.89-.35,.57-.8,1.07-1.32,1.48,.23-.24,.45-.48,.65-.74,.21-.26,.38-.53,.55-.81,.32-.57,.56-1.18,.71-1.81,.15-.63,.22-1.29,.22-1.94,0-.33-.02-.65-.05-.98-.03-.33-.08-.65-.16-.97Z"/><path class="cls-1" d="M26.09,18.22c.08,.6,.5,1.04,.94,.98,.44-.06,.72-.6,.64-1.2-.08-.6-.5-1.04-.94-.98-.44,.06-.72,.6-.64,1.2Z"/><path class="cls-1" d="M28.07,16.4c.22,.63,.32,1.29,.35,1.95,.03,.66-.03,1.34-.18,1.99-.08,.32-.18,.64-.31,.95-.13,.31-.28,.61-.46,.89-.35,.57-.8,1.07-1.32,1.48,.23-.24,.45-.48,.65-.74,.21-.26,.38-.53,.55-.81,.32-.57,.56-1.18,.71-1.81,.15-.63,.22-1.29,.22-1.94,0-.33-.02-.65-.05-.98-.03-.33-.08-.65-.16-.97Z"/><path class="cls-1" d="M27.28,16.51c.08,.6,.5,1.04,.94,.98,.44-.06,.72-.6,.64-1.2-.08-.6-.5-1.04-.94-.98-.44,.06-.72,.6-.64,1.2Z"/></g><path class="cls-1" d="M23.17,24.49s0,.09,.04,.13c.03,.04,.06,.07,.1,.11,.07,.07,.14,.14,.2,.22,.13,.15,.25,.32,.35,.5,.2,.35,.34,.74,.43,1.14,.09,.4,.13,.8,.14,1.2,0,.4-.02,.8-.09,1.2-.07-.8-.13-1.58-.3-2.34-.08-.38-.2-.75-.36-1.1-.08-.18-.17-.35-.27-.51-.05-.08-.11-.17-.16-.25-.03-.04-.05-.09-.08-.13-.02-.04-.04-.11,0-.15Z"/><path class="cls-1" d="M22.55,24.98c.38,.47,.96,.64,1.31,.36,.34-.27,.32-.88-.06-1.35-.38-.47-.96-.64-1.31-.36-.34,.27-.32,.88,.06,1.35Z"/><path class="cls-1" d="M22.44,20.55c.49,.27,.92,.63,1.31,1.03,.39,.4,.72,.86,.99,1.35,.14,.24,.24,.51,.34,.77,.04,.13,.08,.27,.12,.4,.02,.07,.04,.13,.05,.2l.03,.21c.02,.14,.05,.28,.06,.42l.02,.42c0,.14,0,.28-.02,.42-.01,.14-.03,.28-.04,.41,0-.55,0-1.11-.13-1.64-.03-.13-.05-.27-.1-.4-.04-.13-.08-.26-.12-.39-.11-.25-.21-.51-.34-.74-.25-.49-.58-.93-.94-1.34-.18-.2-.38-.4-.58-.59-.2-.19-.42-.36-.64-.53Z"/><g><path class="cls-1" d="M19.78,21.1s-.03,.05,0,0c-1.58,.15,.14-4.34,1.2-3.21,0-1.83,3.75-.55,2.47,.91,1.2-.04-.2,3.97-1.13,3.06,.07,1.68-3.49,.69-2.54-.77Z"/><path class="cls-1" d="M21.35,20.39c.25,.09,.54-.08,.65-.38,.11-.3,0-.62-.24-.71-.25-.09-.54,.08-.65,.38-.11,.3,0,.62,.24,.71Z"/></g><g><path class="cls-1" d="M21.23,11.25c.05,0-.06,0,0,0-.96-1.88,3.82-2.48,3.39-.46,1.58-1.11,2.44,4.36,.51,3.66,.67,1.47-3.53,2.17-3.23,.45-1.42,1.11-2.42-3.95-.67-3.65Z"/><path class="cls-1" d="M22.67,12.79c.05,.37,.35,.63,.67,.58,.32-.04,.54-.38,.49-.74-.05-.37-.35-.63-.67-.58-.32,.04-.54,.38-.49,.74Z"/></g><g><path class="cls-1" d="M3.59,3.05c.68,1.04,1.39,2.05,2.12,3.04,.74,.99,1.51,1.95,2.33,2.86,.82,.91,1.71,1.76,2.68,2.49,.98,.73,2.06,1.33,3.28,1.6-.62-.03-1.24-.19-1.82-.42-.58-.23-1.14-.53-1.66-.88-.52-.35-1.01-.74-1.49-1.15-.46-.42-.91-.87-1.33-1.32-.84-.93-1.6-1.92-2.29-2.96-.69-1.04-1.32-2.12-1.83-3.25Z"/><g><path class="cls-1" d="M4.12,.52s.05-.04,0,0C3.95-1.15-.19,1.67,1.16,2.49c-1.82,.43,.21,3.99,1.41,2.34,.2,1.24,3.92-1.13,2.82-1.88,1.69-.32-.03-3.75-1.28-2.44Z"/><path class="cls-1" d="M3.61,2.8c-.2,.28-.58,.39-.84,.24-.26-.15-.3-.5-.1-.79,.2-.28,.58-.39,.84-.24,.26,.15,.3,.5,.1,.79Z"/></g><path class="cls-1" d="M12.95,12.94c-.41-.31-.78-.67-1.13-1.05-.35-.38-.67-.79-.95-1.22-.29-.43-.54-.88-.75-1.36-.22-.47-.37-.97-.48-1.47,.1,.24,.17,.49,.28,.72l.15,.35,.17,.34c.23,.45,.49,.9,.77,1.32,.28,.43,.59,.83,.91,1.23,.16,.2,.33,.39,.5,.58,.17,.19,.35,.38,.53,.56Z"/><g><path class="cls-1" d="M2.56,7.65c.14,.11,.3,.16,.47,.19,.08,.02,.17,.02,.25,.03,.09,0,.17,.01,.26,.01,.34,0,.69-.03,1.03-.07,.34-.04,.68-.09,1.03-.15,.34-.06,.68-.12,1.03-.17-.33,.13-.66,.24-1,.32-.34,.09-.69,.15-1.04,.2-.35,.04-.71,.06-1.06,.02-.09,0-.18-.02-.26-.04-.09-.02-.17-.04-.26-.07-.16-.06-.34-.14-.45-.28Z"/><path class="cls-1" d="M2.76,7.23c.45,.14,.74,.52,.63,.85-.1,.33-.55,.48-1.01,.34-.45-.14-.74-.52-.63-.85,.1-.33,.55-.48,1.01-.34Z"/></g><g><path class="cls-1" d="M7.77,5.79s-.05,0,0,0c-.73-1.29,3.05-1.77,2.68-.36,1.26-.79,1.87,2.99,.36,2.53,.51,1.01-2.81,1.55-2.56,.36-1.13,.79-1.86-2.71-.48-2.52Z"/><path class="cls-1" d="M8.89,6.83c.04,.25,.27,.43,.52,.39,.25-.04,.43-.27,.4-.52-.04-.25-.27-.43-.52-.39-.25,.04-.43,.27-.4,.52Z"/></g></g><g><g><path class="cls-1" d="M14.09,32.09c.13-.09,.3-.11,.46-.11,.16,0,.32,.03,.47,.07,.31,.08,.59,.23,.86,.39,.26,.17,.52,.36,.75,.56,.12,.11,.23,.21,.34,.32,.11,.12,.21,.23,.31,.35l-.74-.56c-.25-.18-.5-.36-.76-.52-.26-.16-.53-.3-.81-.41-.14-.05-.29-.1-.44-.11-.15-.02-.3-.02-.45,.03Z"/><path class="cls-1" d="M14.06,32.49c.4,.08,.77-.1,.83-.39,.06-.29-.22-.59-.62-.67s-.77,.1-.83,.39c-.06,.29,.22,.59,.62,.67Z"/></g><g><path class="cls-1" d="M17.72,36.77c.26,.18,.58,.21,.88,.19,.3-.03,.6-.11,.89-.23,.29-.12,.56-.26,.83-.41,.27-.16,.53-.33,.81-.49-.11,.11-.23,.21-.35,.32-.12,.1-.25,.19-.38,.29-.13,.1-.27,.17-.41,.25-.14,.08-.29,.14-.43,.21-.3,.12-.62,.2-.95,.2-.32,0-.67-.09-.89-.33Z"/><path class="cls-1" d="M17.73,36.36c.41-.04,.76,.16,.79,.46,.03,.29-.27,.57-.68,.61-.41,.04-.76-.16-.79-.46-.03-.29,.27-.57,.68-.61Z"/></g><g><path class="cls-1" d="M15.51,36.84c.09,.1,.23,.15,.36,.15,.13,0,.26-.02,.39-.05,.26-.07,.5-.19,.74-.32l.18-.1,.17-.11,.18-.1,.17-.11c.23-.14,.46-.3,.7-.44-.2,.19-.4,.38-.63,.55-.11,.09-.22,.17-.34,.24-.12,.08-.24,.15-.36,.21-.25,.13-.51,.24-.79,.29-.14,.03-.29,.03-.43,0-.14-.03-.29-.1-.35-.23Z"/><path class="cls-1" d="M15.52,36.43c.41-.04,.76,.16,.79,.46,.03,.29-.27,.57-.68,.61-.41,.04-.76-.16-.79-.46-.03-.29,.27-.57,.68-.61Z"/></g><g><path class="cls-1" d="M15.11,34.39c.22,0,.43,.07,.63,.16,.2,.09,.39,.19,.57,.31,.18,.12,.35,.25,.51,.39l.24,.22c.07,.08,.15,.15,.22,.23l-.51-.38c-.17-.12-.34-.25-.52-.37-.17-.12-.36-.23-.54-.33-.19-.1-.38-.19-.59-.23Z"/><path class="cls-1" d="M15.1,34.64c.25,.04,.47-.07,.51-.25,.03-.18-.15-.36-.39-.4-.25-.04-.47,.07-.51,.25-.03,.18,.15,.36,.39,.4Z"/></g><g><path class="cls-1" d="M15.54,31.88c.39-.02,.78,.07,1.15,.19,.37,.13,.72,.31,1.06,.51,.34,.2,.64,.45,.94,.7,.14,.13,.28,.27,.43,.4,.13,.15,.26,.29,.39,.44-.15-.12-.3-.25-.45-.37-.15-.12-.3-.24-.45-.36-.31-.23-.62-.46-.95-.66-.32-.2-.66-.38-1.01-.54-.18-.07-.36-.14-.54-.19-.18-.06-.37-.1-.56-.12Z"/><path class="cls-1" d="M15.42,32.26c.37,.17,.77,.08,.89-.19s-.08-.62-.46-.79c-.37-.17-.77-.08-.89,.19-.12,.27,.08,.62,.46,.79Z"/></g><path class="cls-1" d="M12.55,34.91c1.04,.16,2.08,.29,3.12,.42,.52,.06,1.04,.12,1.56,.17,.52,.05,1.04,.09,1.56,.12,.52,.03,1.04,.05,1.56,.06,.52,0,1.04,0,1.56-.03,.52-.03,1.04-.09,1.55-.18,.51-.09,1.02-.24,1.49-.46-.44,.29-.95,.47-1.46,.61-.51,.14-1.04,.23-1.56,.28-1.05,.12-2.11,.11-3.17,.05-1.05-.07-2.1-.19-3.14-.36-1.04-.17-2.07-.39-3.08-.68Z"/><path class="cls-1" d="M10.52,32.03l2.47,.55c.82,.19,1.65,.37,2.47,.54,1.65,.35,3.3,.7,4.96,1.01,.83,.16,1.66,.31,2.49,.44,.83,.14,1.66,.26,2.5,.36,.83,.1,1.67,.18,2.51,.21,.84,.03,1.69,.01,2.5-.22-.39,.15-.81,.25-1.23,.29-.42,.05-.85,.08-1.27,.09-.85,0-1.69-.04-2.54-.12-1.69-.15-3.36-.42-5.02-.73-1.66-.32-3.31-.67-4.95-1.08-.82-.2-1.64-.42-2.45-.63-.81-.23-1.63-.45-2.43-.71Z"/><path class="cls-1" d="M10.01,32.82c.57,.11,1.09-.13,1.18-.55s-.32-.84-.89-.95c-.57-.11-1.09,.13-1.18,.55s.32,.84,.89,.95Z"/><path class="cls-1" d="M11.97,35.68c.57,.11,1.1-.14,1.18-.55,.08-.41-.32-.84-.89-.95-.57-.11-1.1,.13-1.18,.55-.08,.41,.32,.84,.89,.95Z"/></g></g></svg>